<svg xmlns="http://www.w3.org/2000/svg" viewBox="0 0 24 24"><path d="M16.004 2.34439c-.3621-.20117-.8187-.07072-1.0198.29136-.2012.36208-.0708.81868.2913 1.01986 2.9934 1.66313 4.9745 4.71483 4.9745 8.18009 0 3.6901-2.2478 6.9132-5.5709 8.4864-.3744.1773-.5342.6244-.357.9988.1773.3744.6244.5342.9988.357 3.7934-1.7959 6.4291-5.5151 6.4291-9.8422 0-4.06199-2.3236-7.58986-5.746-9.49131zM5 9.25c-1.51878 0-2.75 1.2312-2.75 2.75 0 1.5188 1.23122 2.75 2.75 2.75 1.25878 0 2.32002-.8457 2.64648-2h3.35352c.4142 0 .75-.3358.75-.75 0-.4142-.3358-.75-.75-.75h-3.35352c-.32646-1.1543-1.3877-2-2.64648-2z"/><path d="M12.6637,4.71427c0.1578,-0.38298 0.5962,-0.56552 0.9792,-0.40771c2.9958,1.23445 5.1071,4.18235 5.1071,7.62514c0,3.5913 -2.2971,6.6441 -5.5002,7.7755c-0.3906,0.1379 -0.819,-0.0669 -0.957,-0.4574c-0.1379,-0.3906 0.0669,-0.819 0.4574,-0.957c2.6229,-0.9264 4.4998,-3.4259 4.4998,-6.3611c0,-2.81372 -1.7246,-5.22709 -4.1786,-6.23826c-0.383,-0.15781 -0.5655,-0.5962 -0.4077,-0.97917Z"/><path d="M11,6.25c-0.4142,0 -0.75,0.33579 -0.75,0.75c0,0.41421 0.3358,0.75 0.75,0.75c1.6474,0 3.25,1.73797 3.25,4.25c0,2.512 -1.6026,4.25 -3.25,4.25c-0.4142,0 -0.75,0.3358 -0.75,0.75c0,0.4142 0.3358,0.75 0.75,0.75c2.7709,0 4.75,-2.7392 4.75,-5.75c0,-3.01081 -1.9791,-5.75 -4.75,-5.75Z"/></svg>