<?xml version="1.0" encoding="utf-8"?>
<!-- Generator: Adobe Illustrator 25.4.1, SVG Export Plug-In . SVG Version: 6.00 Build 0)  -->
<svg version="1.1" id="Layer_1" xmlns="http://www.w3.org/2000/svg" xmlns:xlink="http://www.w3.org/1999/xlink" x="0px" y="0px"
	 viewBox="0 0 21 15.1" style="enable-background:new 0 0 21 15.1;" xml:space="preserve">
<path d="M0.7,6.9c0,0,0.5-0.1,0.6,0.1c0.2,0.2,0.1,0.6-0.2,0.6c-0.2,0-0.5,0.1-0.6-0.1C0.4,7.4,0.4,7.1,0.6,7C0.6,7,0.7,6.9,0.7,6.9
	 M5.7,9.7c0,0-0.1,0-0.1-0.1c-0.3-0.5-0.4-2-0.6-2.1C4.8,7.5,4.2,8.4,3.1,8.3C2.6,8.3,2.2,8,1.9,7.8c0-0.4,0-1.2,0.7-0.9
	C3,7,3.8,7.5,4.4,6.6C5.1,5.7,5.5,6,5.7,6.2C6,6.4,5.8,7.4,6.1,7.1c0.3-0.3,1.8-2,1.8-2S9,4,9.1,5.1s0.9,2.5,1.1,2.4
	c0.2,0,2.4-4.5,2.7-4.8c0.3-0.3,1.4-0.3,1.3,0.5c-0.1,0.7-0.2,5.4-0.2,5.4s-0.1,1.3,0.1,0.6c0.1-0.3,0.2-0.5,0.3-0.9
	c0.5-1.7,1.5-4.7,1.9-6.3l0.3-0.9c0-0.1,0.1-0.2,0.1-0.3c0-0.1,0.1-0.2,0.1-0.2c0-0.1,0.1-0.1,0.2-0.1c0.1-0.1,0.2-0.1,0.3-0.1
	c0.3,0,0.6,0,0.9,0.1c0.1,0,0.2,0,0.3,0.1l0,0l0,0c0,0,0.1,0.1,0.1,0.1l0,0c0,0,0,0,0,0.1c0.2,0.2,0.3,0.7,0.2,1.5
	c-0.3,2-0.4,6.1-0.4,6.1s0,0.2,0.4-0.7c0,0,0-0.1,0-0.1c0,0,0.1,0,0.1-0.1c0.3-0.3,0.9-0.5,1.4-0.5c0.2,0,0.4,0.1,0.5,0.1
	c0.2,0.3,0.1,1.3,0.1,1.3c-0.4,0-1.1,0.2-1.4,0.3c-0.3,0-0.7,1.8-1.2,1.6c-0.6-0.2-1.8-1-1.8-1.1c0-0.1,0.1-1.2,0.1-1.5l0-0.1l0,0
	c0-0.2,0-0.3-0.1-0.1c-0.1,0.2-0.5,1.5-0.9,2.9c0,0.1-0.9,2.7-1,3c-0.1,0.4-0.2,0.6-0.3,0.8c-0.1,0.2-0.3,0.3-0.5,0.2
	c-0.5-0.2-1.2-0.9-1.2-1.1c0-1.1,0.1-6.8-0.2-6.3c-0.3,0.5-2.3,3.9-2.3,3.9c0,0-0.1,0-0.1,0c-0.1,0-0.4-0.1-0.4-0.2c0,0,0,0,0,0
	c0,0,0,0,0,0c0-0.1,0-0.2-0.1-0.3c-0.1-0.3-0.2-0.8-0.4-1.2C8.5,8.4,8.3,7.6,8.3,7.5C8.2,7.4,8.1,7.4,8,7.5C7.5,7.9,6.5,9.6,5.7,9.7
	"/>
</svg>
