<?xml version="1.0" encoding="utf-8"?>
<!-- Generator: Adobe Illustrator 27.8.1, SVG Export Plug-In . SVG Version: 6.00 Build 0)  -->
<svg version="1.1" id="Layer_1" xmlns="http://www.w3.org/2000/svg" xmlns:xlink="http://www.w3.org/1999/xlink" x="0px" y="0px"
	 viewBox="0 0 150 150" style="enable-background:new 0 0 150 150;" xml:space="preserve">
<g>
	<path d="M74.1,38.1c7.9,0,14.8-3.1,20.8-9.3c6-6.2,8.9-13.3,8.9-21.5c0-0.9-0.1-2.2-0.2-3.8c-1,0.1-1.8,0.3-2.3,0.4
		c-7.3,1-13.7,4.6-19.2,10.7c-5.5,6.1-8.3,12.6-8.3,19.6C73.8,34.9,73.9,36.3,74.1,38.1L74.1,38.1z M102.5,146.5
		c5.6,0,11.8-3.9,18.7-11.6c6.8-7.7,12-16.8,15.6-27.2c-13.4-6.9-20.1-16.8-20.1-29.7c0-10.8,5.4-20,16.2-27.6
		c-7.5-9.4-17.5-14.1-29.8-14.1c-5.2,0-10,0.8-14.3,2.3l-2.7,1l-3.6,1.4c-2.4,0.9-4.5,1.3-6.5,1.3c-1.5,0-3.5-0.5-6-1.6l-2.8-1.1
		l-2.6-1.1c-3.8-1.6-7.9-2.4-12.3-2.4c-11.8,0-21.2,4-28.4,11.9c-7.1,7.9-10.7,18.4-10.7,31.4c0,18.3,5.7,35.2,17.2,50.7
		c7.9,10.8,15.2,16.2,21.8,16.2c2.8,0,5.6-0.5,8.3-1.6l3.5-1.4l2.8-1c3.9-1.4,7.4-2.1,10.7-2.1c3.5,0,7.4,0.9,11.9,2.6l2.2,0.9
		C96.2,145.6,99.8,146.5,102.5,146.5z"/>
</g>
</svg>
