<?xml version="1.0" encoding="utf-8"?>
<!-- Generator: Adobe Illustrator 26.3.1, SVG Export Plug-In . SVG Version: 6.00 Build 0)  -->
<svg version="1.1" id="Layer_1" xmlns="http://www.w3.org/2000/svg" xmlns:xlink="http://www.w3.org/1999/xlink" x="0px" y="0px"
	 viewBox="0 0 2500 2084" style="enable-background:new 0 0 2500 2084;" xml:space="preserve">
<style type="text/css">
	.st0{fill:#231F20;}
</style>
<path class="st0" d="M935.7,74.4C894.3,0,786.8,0,745.4,74.4L34.1,1364.5c-33.1,66.2,16.5,140.6,91,140.6h479.8V1993
	c0,49.6,41.4,91,91,91H977c49.6,0,91-41.3,91-91v-487.9H935.7c-57.9,0-99.3-41.3-107.5-91c0-16.5,0-33.1,8.3-49.8l397.1-719.5
	L935.7,74.4z"/>
<path class="st0" d="M1564.3,74.4c41.4-74.4,148.9-74.4,190.2,0l711.4,1290.1c33.1,66.2-16.5,140.6-91,140.6h-471.5V1993
	c0,49.6-41.3,91-91.1,91h-297.7c-49.6,0-91-41.3-91-91v-487.9h132.4c57.9,0,99.2-41.3,107.5-91c0-16.5,0-33.1-8.3-49.8l-397-719.3
	L1564.3,74.4z"/>
</svg>
