<?xml version="1.0" encoding="utf-8"?>
<!-- Svg Vector Icons : http://www.onlinewebfonts.com/icon -->
<!DOCTYPE svg PUBLIC "-//W3C//DTD SVG 1.1//EN" "http://www.w3.org/Graphics/SVG/1.1/DTD/svg11.dtd">
<svg version="1.1" xmlns="http://www.w3.org/2000/svg" xmlns:xlink="http://www.w3.org/1999/xlink" x="0px" y="0px" viewBox="0 0 1000 1000" enable-background="new 0 0 1000 1000" xml:space="preserve">
<metadata> Svg Vector Icons : http://www.onlinewebfonts.com/icon </metadata>
<g><g><g><g><path d="M500,10C229.4,10,10,229.4,10,500s219.4,490,490,490s490-219.4,490-490C990,229.3,770.6,10,500,10z M517.4,254.5c5.3-11.9,12.4-22.5,21.4-31.5c9.1-9.1,19.5-16.2,31.5-21.4s25-7.8,39-7.8c14,0,26.9,2.6,38.9,7.8c11.9,5.2,22.4,12.4,31.4,21.4c9.1,9,16.3,19.5,21.4,31.5c5.4,11.9,8,24.9,8,38.9c0,14-2.6,26.9-8,38.9c-5.1,11.9-12.3,22.4-21.4,31.5c-8.9,9-19.5,16.2-31.4,21.4c-11.9,5.2-24.8,7.8-38.9,7.8c-14,0-27-2.6-39-7.8c-11.9-5.3-22.4-12.4-31.5-21.4c-8.9-9.1-16.1-19.5-21.4-31.5c-5.3-11.9-8-24.9-8-38.9C509.4,279.4,512.1,266.5,517.4,254.5z M362.2,238.7c14.9-14.8,32.8-22.2,53.7-22.2c21.6,0,39.8,7.4,54.6,22.2c14.9,14.9,22.3,32.8,22.3,53.8c0,21.6-7.5,39.8-22.4,54.6c-14.8,14.8-33,22.2-54.6,22.2c-20.9,0-38.8-7.4-53.7-22.3c-14.9-14.9-22.4-33.1-22.4-54.6C340,271.5,347.4,253.6,362.2,238.7z M228.5,252.7c11.3-11.4,25.2-17.1,41.5-17.1c16.4,0,30,5.7,41.1,17.1c11,11.3,16.5,24.9,16.5,40.6c0,16.4-5.6,30.1-16.5,41.5C300,346.3,286.4,352,270,352c-16.3,0-30.1-5.7-41.5-17c-11.4-11.4-17.1-25.2-17.1-41.5C211.5,277.7,217.1,264.1,228.5,252.7z M745,806.2H475.8V683.7H307.2V561.2H206.6V449.8c0-19.8-0.5-36.6,13.2-50.2c13.7-13.7,30.4-20.5,50.2-20.5c16.9,0,31.5,5.1,43.7,15.3c12.2,10.2,20.3,22.8,24.5,38c9.9-11.6,21.6-20.6,34.9-27.1c13.4-6.4,27.7-9.6,42.8-9.6c23.9,0,44.7,7.2,62.5,21.4c17.8,14.3,29.6,32.2,35.4,53.7c12.2-11.6,26.5-21,42.9-27.9c16.4-7,33.8-10.5,52.4-10.5c18.6,0,36.3,3.5,52.9,10.5c16.6,7,31,16.6,43.3,28.8c12.1,12.2,21.9,26.6,29.2,43.2c7.3,16.6,10.4,34.2,10.4,52.8V806.2L745,806.2z"/></g></g></g><g></g><g></g><g></g><g></g><g></g><g></g><g></g><g></g><g></g><g></g><g></g><g></g><g></g><g></g><g></g></g>
</svg>