<?xml version="1.0" encoding="utf-8"?>
<!-- Generator: Adobe Illustrator 27.8.1, SVG Export Plug-In . SVG Version: 6.00 Build 0)  -->
<svg version="1.1" id="Layer_1" xmlns="http://www.w3.org/2000/svg" xmlns:xlink="http://www.w3.org/1999/xlink" x="0px" y="0px"
	 viewBox="0 0 150 150" style="enable-background:new 0 0 150 150;" xml:space="preserve">
<style type="text/css">
	.st0{clip-path:url(#SVGID_00000182488378751923555870000010380279573305822617_);}
	.st1{clip-path:url(#SVGID_00000021119148221447687970000016321143232014298812_);}
	
		.st2{clip-path:url(#SVGID_00000138570113154837652670000015457174433907262344_);fill:none;stroke:#000000;stroke-width:9.0813;stroke-miterlimit:10;}
	.st3{clip-path:url(#SVGID_00000137118731377313624720000012915799350190597254_);}
	.st4{clip-path:url(#SVGID_00000169557164711008415340000002806147262262521479_);}
</style>
<g>
	<g>
		<defs>
			
				<rect id="SVGID_1_" x="2.1" y="2" transform="matrix(2.643067e-03 -1 1 2.643067e-03 -0.1848 149.2009)" width="145.3" height="145.3"/>
		</defs>
		<defs>
			<path id="SVGID_00000094618709283600758560000005905503713298443429_" d="M74.5,147.3c40.1,0.1,72.7-32.3,72.8-72.5
				C147.5,34.8,115,2.1,74.9,2S2.2,34.4,2.1,74.5C1.9,114.6,34.4,147.2,74.5,147.3L74.5,147.3z M74.5,147.3"/>
		</defs>
		<defs>
			
				<rect id="SVGID_00000106147195887809906930000000198461743411390375_" x="-23.4" y="-51.8" transform="matrix(2.643067e-03 -1 1 2.643067e-03 53.7649 123.9071)" width="224.8" height="173.7"/>
		</defs>
		<clipPath id="SVGID_00000008854485867917477410000012683328094743154363_">
			<use xlink:href="#SVGID_1_"  style="overflow:visible;"/>
		</clipPath>
		
			<clipPath id="SVGID_00000030487409147832268830000000734161863881313174_" style="clip-path:url(#SVGID_00000008854485867917477410000012683328094743154363_);">
			<use xlink:href="#SVGID_00000094618709283600758560000005905503713298443429_"  style="overflow:visible;"/>
		</clipPath>
		
			<clipPath id="SVGID_00000001657535009836183270000014497929088070808464_" style="clip-path:url(#SVGID_00000030487409147832268830000000734161863881313174_);">
			<use xlink:href="#SVGID_00000106147195887809906930000000198461743411390375_"  style="overflow:visible;"/>
		</clipPath>
		
			<path style="clip-path:url(#SVGID_00000001657535009836183270000014497929088070808464_);fill:none;stroke:#000000;stroke-width:9.0813;stroke-miterlimit:10;" d="
			M74.5,147.3c40.1,0.1,72.7-32.3,72.8-72.5C147.5,34.8,115,2.1,74.9,2S2.2,34.4,2.1,74.5C1.9,114.6,34.4,147.2,74.5,147.3
			L74.5,147.3z M74.5,147.3"/>
	</g>
	<g>
		<defs>
			
				<rect id="SVGID_00000077294510582682416160000015173634056064759470_" x="2.1" y="2" transform="matrix(2.643067e-03 -1 1 2.643067e-03 -0.1848 149.2009)" width="145.3" height="145.3"/>
		</defs>
		<defs>
			<polyline id="SVGID_00000029754173535548024810000009239733918843456925_" points="88.8,97.6 35.8,97.4 60.6,51.8 113.6,51.9 
				88.8,97.6 			"/>
		</defs>
		<clipPath id="SVGID_00000084518769912598115520000015070491073706329995_">
			<use xlink:href="#SVGID_00000077294510582682416160000015173634056064759470_"  style="overflow:visible;"/>
		</clipPath>
		
			<clipPath id="SVGID_00000124848498625237462100000014337257731410084224_" style="clip-path:url(#SVGID_00000084518769912598115520000015070491073706329995_);">
			<use xlink:href="#SVGID_00000029754173535548024810000009239733918843456925_"  style="overflow:visible;"/>
		</clipPath>
		
			<rect x="50.4" y="34.4" transform="matrix(2.643067e-03 -1 1 2.643067e-03 -0.1848 149.2008)" style="clip-path:url(#SVGID_00000124848498625237462100000014337257731410084224_);" width="48.5" height="80.6"/>
	</g>
</g>
</svg>
