<?xml version="1.0" encoding="utf-8"?>
<!-- Generator: Adobe Illustrator 27.8.1, SVG Export Plug-In . SVG Version: 6.00 Build 0)  -->
<svg version="1.1" id="Layer_1" xmlns="http://www.w3.org/2000/svg" xmlns:xlink="http://www.w3.org/1999/xlink" x="0px" y="0px"
	 viewBox="0 0 150 150" style="enable-background:new 0 0 150 150;" xml:space="preserve">
<style type="text/css">
	.st0{fill-rule:evenodd;clip-rule:evenodd;}
</style>
<g>
	<g>
		<path d="M129.9,122C68,150.6,29.6,126.7,5,112.2c-1.5-0.9-4.1,0.2-1.9,2.7c8.2,9.6,35,32.9,70.1,32.9c35.1,0,55.9-18.6,58.5-21.8
			C134.3,122.7,132.5,121,129.9,122L129.9,122z M147.2,112.7c-1.7-2.1-10.1-2.5-15.4-1.9c-5.3,0.6-13.3,3.8-12.6,5.7
			c0.4,0.7,1.1,0.4,4.7,0.1c3.7-0.4,13.9-1.6,16.1,1.1c2.1,2.7-3.3,15.8-4.3,17.9c-1,2.1,0.4,2.6,2.2,1.2c1.8-1.4,5-5,7.1-10.1
			C147.2,121.5,148.5,114.3,147.2,112.7L147.2,112.7z"/>
		<path class="st0" d="M88.3,63.7c0,7.5,0.2,13.8-3.7,20.4c-3.2,5.4-8.1,8.7-13.7,8.7c-7.6,0-12.1-5.6-12.1-13.9
			c0-16.4,15.1-19.4,29.5-19.4L88.3,63.7z M108.3,110.6c-1.3,1.1-3.2,1.2-4.7,0.5c-6.6-5.3-7.8-7.8-11.4-12.8
			c-10.9,10.8-18.6,14-32.7,14c-16.7,0-29.7-10-29.7-30c0-15.6,8.7-26.3,21.1-31.5c10.8-4.6,25.8-5.4,37.3-6.7v-2.5
			c0-4.6,0.4-10-2.4-13.9c-2.4-3.5-7.1-5-11.1-5c-7.6,0-14.3,3.8-16,11.6c-0.3,1.7-1.6,3.4-3.4,3.5l-19.2-2c-1.6-0.4-3.4-1.6-3-4
			C37.6,9.1,58.6,2.3,77.5,2.3c9.7,0,22.3,2.5,29.9,9.6c9.7,8.7,8.7,20.4,8.7,33.1l0,30c0,9,3.8,13,7.5,17.8
			c1.3,1.7,1.6,3.8-0.1,5.1C119.5,101.2,112.3,107.3,108.3,110.6L108.3,110.6"/>
		<path d="M129.9,122C68,150.6,29.6,126.7,5,112.2c-1.5-0.9-4.1,0.2-1.9,2.7c8.2,9.6,35,32.9,70.1,32.9c35.1,0,55.9-18.6,58.5-21.8
			C134.3,122.7,132.5,121,129.9,122L129.9,122z M147.2,112.7c-1.7-2.1-10.1-2.5-15.4-1.9c-5.3,0.6-13.3,3.8-12.6,5.7
			c0.4,0.7,1.1,0.4,4.7,0.1c3.7-0.4,13.9-1.6,16.1,1.1c2.1,2.7-3.3,15.8-4.3,17.9c-1,2.1,0.4,2.6,2.2,1.2c1.8-1.4,5-5,7.1-10.1
			C147.2,121.5,148.5,114.3,147.2,112.7L147.2,112.7z"/>
		<path class="st0" d="M88.3,63.7c0,7.5,0.2,13.8-3.7,20.4c-3.2,5.4-8.1,8.7-13.7,8.7c-7.6,0-12.1-5.6-12.1-13.9
			c0-16.4,15.1-19.4,29.5-19.4L88.3,63.7z M108.3,110.6c-1.3,1.1-3.2,1.2-4.7,0.5c-6.6-5.3-7.8-7.8-11.4-12.8
			c-10.9,10.8-18.6,14-32.7,14c-16.7,0-29.7-10-29.7-30c0-15.6,8.7-26.3,21.1-31.5c10.8-4.6,25.8-5.4,37.3-6.7v-2.5
			c0-4.6,0.4-10-2.4-13.9c-2.4-3.5-7.1-5-11.1-5c-7.6,0-14.3,3.8-16,11.6c-0.3,1.7-1.6,3.4-3.4,3.5l-19.2-2c-1.6-0.4-3.4-1.6-3-4
			C37.6,9.1,58.6,2.3,77.5,2.3c9.7,0,22.3,2.5,29.9,9.6c9.7,8.7,8.7,20.4,8.7,33.1l0,30c0,9,3.8,13,7.5,17.8
			c1.3,1.7,1.6,3.8-0.1,5.1C119.5,101.2,112.3,107.3,108.3,110.6L108.3,110.6"/>
	</g>
</g>
</svg>
