<?xml version="1.0" encoding="utf-8"?>
<!-- Generator: Adobe Illustrator 26.5.0, SVG Export Plug-In . SVG Version: 6.00 Build 0)  -->
<svg version="1.1" id="Layer_1" xmlns="http://www.w3.org/2000/svg" xmlns:xlink="http://www.w3.org/1999/xlink" x="0px" y="0px"
	 viewBox="0 0 3000 3000" style="enable-background:new 0 0 3000 3000;" xml:space="preserve">
<g>
	<g>
		<path d="M1499.3,2976.4C682.5,2974.2,24.2,2317,23.9,1500C23.5,672.8,698.7,15.2,1515.7,23.7
			c808.7,8.4,1470.9,670.6,1460.3,1496.2C2965.7,2322.7,2313.5,2975.2,1499.3,2976.4z M1499.6,2923.4
			c786-1.6,1415-632.9,1423.4-1407.3c8.7-797.8-637.9-1444.5-1432.9-1439.3C715.7,81.7,77.7,709,76.8,1498.8
			C76,2285.4,711.8,2921.6,1499.6,2923.4z"/>
		<path d="M2890.5,1499.9c0.8,764-616.4,1383.3-1376.7,1390.7C739,2898.2,106,2270.5,109.2,1494C112.2,728.1,735.7,105.4,1507,109.1
			C2273.9,112.9,2891.5,736.5,2890.5,1499.9z M2876.6,1500.9c0.2-757.4-615.7-1376.2-1369.7-1377.8
			C743.1,121.4,128.2,735.3,123.5,1491.4c-4.9,794.1,664.9,1438.5,1473.8,1382.1C2309.9,2823.9,2874.6,2231.7,2876.6,1500.9z"/>
		<path d="M2047.6,1508.7c-14.5,66.7-42.3,130.6-82.1,189.3c-3.4,5-3.6,12.6-3.9,19c-2.6,62.8-2.7,125.8-8.1,188.4
			c-3.8,44.6-19.7,86.8-46.8,123.5c-28.1,38.1-64.2,60-113.6,49.6c-36.3-7.6-58.2-32.1-62.8-68.8c-5-39.4,4.6-76.4,26.2-108.2
			c30.6-45,64.3-88,98.1-130.7c10-12.7,14.9-24.3,14-40.5c-2.3-39.4-3-79-7.2-119c-2.3,8.6-3.8,17.6-7.1,25.8
			c-9.5,23.7-16.9,48.7-30.2,70.2c-32.9,53.2-97.9,63.3-147.8,25.5c-26.5-20.1-45.7-46.6-57.5-76.6c-71.2-179.9-67.7-360.7-1.4-541
			c13.3-36.3,34.3-68.8,63.3-95.2c7-6.4,14.5-12.1,22.1-17.7c60.7-44.4,137-12.9,164.7,42.3c19,38,27.6,78.6,33.1,120.1
			c5.9,44.1,11.5,88.4,15.3,132.7c0.9,9.8-3.8,22.2-10.1,30.2c-14.1,18-51.1,25.2-72.7,17c-12.6-4.8-18.6-14.5-19-26.9
			c-1.1-33.9-1.9-67.8-1.8-101.7c0.1-47.3,2.4-94.5,1.2-141.7c-0.7-27.1-11.2-46.4-26.1-62.3c-21.2,5.8-36.5,20-49.3,37.2
			c-23.3,31.5-36.9,67.4-45.5,105c-33.6,147.5-35.9,294.7,8.3,440.7c6,19.8,16.7,39.1,29.1,55.8c24.9,33.4,64.6,32.3,85-3.8
			c13.6-24.2,21.3-52.3,28.4-79.5c6-23,7.5-47.2,10.4-71c2.9-24.7,20.2-42,44.8-43.7c24.5-1.7,43.2,11.1,46.7,37.7
			c5.6,42.4,8,85.3,11.7,128c0.3,3.8,0.6,7.5,1.2,14.3c3.5-4.5,5.6-6.7,7.2-9.2c28.8-47.4,51-97.7,63.1-152
			c1.8-8.2,1.2-17.5-0.4-25.8c-5.3-27.3-13-54.2-17.3-81.6c-8.3-53.5-1-103.4,39.3-142.8c-48.4-86-48.8-171.8-1.9-257
			c37.7-68.4,114-99.6,185.3-86.7c47.8,8.6,80.4,38.9,104.9,78.7c33,53.6,49.3,113.1,58.4,174.6c17.4,116.7,12.9,232.2-25.1,344.9
			c-12.7,37.7-30.6,72.9-57.4,102.9c-57.2,63.7-142.8,68.8-204.3,9.3C2086.2,1564.7,2068.2,1535.2,2047.6,1508.7z M2109.7,1273.3
			c-4.1,92.1,1.5,184.7,44.9,271c6.2,12.3,14.4,24,23.7,34.1c32.5,35.4,60.7,33,81.4-10c13.3-27.7,22.7-58.1,28.5-88.4
			c18.9-98,17.2-197.1,8.9-296.1c-5.9-70.5-17.2-140.2-38.5-207.9c-7.8-24.7-18.5-47.7-39.5-64.4c-10.5-8.3-21.6-12.6-33.1-3.3
			c-13.6,11-30.6,20.8-38.8,35.2c-48.5,85.1-52,173.1-10.1,261.9c11.5,24.2,30.9,41.6,56,52.8c6.2,2.8,10.3,10,15.4,15.1
			c-6.5,3.2-13.2,9.6-19.5,9.1C2163.3,1280.7,2137.7,1276.8,2109.7,1273.3z M1870.3,1820.6c-35.4,42.5-67.4,81.7-88,128.7
			c-10,22.8-15.5,46.5-11.4,71.6c2.2,13.7,7.7,26,22,31c14.8,5.2,27.4-1.7,35.4-12.5c10.4-14.1,20.2-29.6,25.8-46.1
			C1872.9,1938.8,1872.1,1882,1870.3,1820.6z"/>
		<path d="M1138.7,1717.6c-22.8,41.4-45.8,83.8-69.6,125.8c-6.3,11.1-14.8,20.8-22.6,31c-60.1,79-141.1,112.7-238.9,109.1
			c-30.3-1.1-60.3-0.2-88.1,13c-15.4,7.3-29.2,17.9-44.2,26.2c-6.3,3.5-15.7,8.2-20.3,5.9c-4.9-2.6-8.1-12.8-8.2-19.8
			c-0.6-34.1,15.8-62.2,39.4-83.8c25.8-23.5,33.3-52.9,38.1-84.4c10-65.5,5.2-131.1,1.8-196.8c-5.2-100.1-11.3-200.1-14.9-300.3
			c-1.8-50.2,3.7-100.2,19.8-148.3c11.3-33.5,29.1-61.9,60.8-80.8c41.6-24.7,128-6.8,158.9,52.6c10.5,20.2,20.2,41.1,27.2,62.6
			c17.7,53.9,34,108.3,50.3,162.7c13.3,44.3-10.1,76.2-56.4,78.3c-28.4,1.2-47.7-13.3-56.7-38.2c-8.4-23.3-14.1-48.1-16.7-72.7
			c-2.8-26.4,1-53.5-1-80.1c-2.4-33.1-7.1-66.1-12.3-98.9c-1.6-10.1-6.9-20.2-12.5-28.9c-4.4-6.7-14-17-18-15.7
			c-8.9,2.9-19.5,10.7-22.7,19c-6.1,15.8-10.4,33.4-10.4,50.2c-0.2,89.1,1,178.1,2.2,267.2c1.3,93.6,4,187.2-8.8,280.3
			c-5.7,41.5-14.2,82.3-33.3,120.1c-0.9,1.8-1,4.1-2.3,9.5c45.3-4.8,89-8.8,132.5-14.3c45-5.6,81.5-28.4,112.8-60.2
			c39.5-40.2,69.5-86.9,92-138.3c2.8-6.4,2.1-15,1-22.4c-3.3-23.1-9.2-45.9-11.2-69.1c-4-46.9,6.7-89.7,41.7-123.6
			c-44.2-74.8-47.8-152.2-15.2-231.1c34.5-83.6,115.9-128.7,198.4-112.6c45.1,8.8,77.1,35.9,101.3,73.2
			c35.7,54.8,52.5,116.4,62.1,180.1c17.1,113.2,14,225.7-22.3,335c-11.2,33.9-27.4,67.5-48,96.6c-61.8,87.4-167,89.5-235.1,7
			c-10.9-13.2-20.5-27.8-29.2-42.7C1151.6,1745.9,1145,1730.5,1138.7,1717.6z M1209.1,1507.8c0,35.4-1.9,73.8,0.5,111.9
			c3.5,55.4,17.3,108.8,42.7,158.6c11.5,22.6,26.8,42.2,50.3,54.2c13.8,7.1,27.1,6.4,36.1-5.5c11.6-15.3,25.1-31.5,29.7-49.3
			c11.7-45,22.1-90.9,27.1-137.1c10.1-93.9,6.5-188.2-7.7-281.4c-8.2-53.7-21.5-106.8-35.9-159.3c-5-18.3-18.1-35.7-31.1-50.3
			c-15.1-16.9-26.3-18.1-43.3-3.4c-17.2,15-34.4,32.6-44.4,52.7c-30.8,61.7-33.6,127.6-16.8,193.8c11.3,44.7,32.8,82.8,79,101.2
			c4.6,1.8,7.3,8.7,10.8,13.2c-4.8,3.1-9.8,9-14.4,8.7C1264.3,1513.9,1237,1510.6,1209.1,1507.8z"/>
		<path d="M1885.3,418c5.9-14.8,10.9-29.5,17.6-43.4c4-8.4,9.8-16.4,16.4-22.9c24.5-24.3,53.3-17.1,61.7,16.2
			c3.7,14.9,4,30.8,4.2,46.3c0.3,23.4-1.7,46.8-1,70.1c0.5,14.3-0.9,25.7-16.8,29.9c-14.3,3.8-31.3-2.9-35.8-17.3
			c-4.2-13.5-5.4-28.3-5.3-42.5c0.1-14.9,4.1-29.8,4.8-44.8c0.3-6.4-3.2-13.1-4.9-19.6c-5.5,4.8-14.1,8.6-15.9,14.5
			c-8.7,27.4-17.7,55.1-22.6,83.4c-10.3,59.4-2.9,118.8,3.5,178.1c0.5,5,1,10.1,0.4,15c-1.5,12-8.7,19-20.8,20.3
			c-13,1.4-22.1-5.3-25.5-17c-4.4-14.9-6.6-30.4-10.4-48.8c-3.1,9.3-4.8,16.6-7.9,23.1c-7.7,15.9-14,33.2-24.6,47
			c-24.3,31.4-59.7,26.9-77.6-8.2c-1.2-2.4-2.3-4.8-4.8-9.9c-3,8.3-4.1,14.8-7.4,20c-8,12.5-14.9,26.8-25.9,36
			c-22.8,19.1-51.9,12.7-66.9-13c-5.5-9.5-9.2-20.2-12.6-30.8c-3.2-10-4.8-20.4-6.5-27.8c-18.3,11.6-36.9,22.9-54.9,35
			c-3.6,2.4-5.6,7.6-7.7,11.8c-9.2,18.3-15.9,38.4-27.7,54.8c-34.9,48.5-90.8,45.1-121.1-6.2c-5.9-10-10.3-20.9-16.2-33.3
			c-1.9,4.7-3.7,8.2-4.9,12c-10.6,31.7-27.8,59.2-50.1,84c-5.6,6.3-9.8,16.1-10.2,24.5c-1.9,39.7-4.2,79.3-22.8,115.4
			c-6.7,13.1-15.7,25.9-26.4,36c-20.4,19.4-50.8,21.6-72.6,7.8c-19.6-12.4-28.1-40.2-18.4-67.4c4.4-12.3,11.7-24,19.8-34.4
			c8.1-10.4,17.5-21.2,28.7-27.7c31.2-18,39.8-43.3,34.1-77.7c-3.2-19.2-0.6-39.5-4.3-59.6c-3.7,10.9-6.5,22-11.1,32.5
			c-9.4,21.5-21.4,41.7-48.7,41.8c-27.8,0.1-41.2-19.7-50.5-42c-15.2-36.7-16.3-76-16.9-115c-0.8-50.1,0.2-100.3-0.6-150.4
			c-0.3-16-2.5-32.4-6.9-47.7c-6-21.3-20.7-24-35.1-7.1c-23.5,27.7-34.2,61.5-38.6,96.4c-4,31.7-4.9,64.3-2.6,96.1
			c1.9,26.6,13.4,50,46.1,52.2c2.7,0.2,5.1,4.5,7.6,6.9c-2.7,2.5-5,6.2-8.1,7.2c-23,7.4-44.1,2.8-62.7-12.2
			c-20-16.1-31.4-37.7-35.6-62.6c-10.4-63,3.3-120.8,41-172.2c18.5-25.2,42.5-41.9,76.3-40.1c31.9,1.7,52.2,13.5,61.4,44.2
			c6.4,21.6,9.2,44.7,10.5,67.2c3.2,55,3.8,110.2,7.2,165.2c1,15.6,6.4,31.7,13.1,46c7.7,16.4,23.4,16.4,29.4-0.5
			c8.3-23.3,15.9-48.2,16.6-72.6c2.4-74.5,1.4-149.1,1.7-223.7c0.1-16.2-0.3-32.3,0-48.5c0.3-21.3,12.5-30.2,32.9-24.5
			c15.8,4.5,26.3,17.9,26.6,36.2c2.6,120.3,4.9,240.6,7.3,360.8c0.1,6.5,0.6,12.9,1.2,24.5c31.1-40.7,57.2-77.2,55.1-127.4
			c-1.2-30.4,0.3-61.1,3.7-91.4c1.2-10.5,12.1-19.7,18.2-29.8c2.9-4.8,5-10.2,7.2-15.5c7-17.3,10.6-37.1,21.5-51.4
			c27.7-36.5,80.3-34.4,107.6,2.4c22.5,30.3,29.2,66,31.2,102.4c1.7,29.7,0.3,59.6,0.3,88.7c24-5.1,44.8-32.6,43.1-60.9
			c-3.1-52.8-6.2-105.6-9-158.4c-1.2-22.9,13.7-39.9,33.5-39c18.2,0.8,26.1,8.4,26.9,26.7c2.1,50.1,3.6,100.2,6.2,150.3
			c1.2,23.9,3.5,47.8,7,71.4c1.8,12.1,2.9,29.2,18.7,29.7c16.1,0.4,20.5-16.2,22.6-29.1c3.9-24.1,7.6-48.6,7.6-72.9
			c0.1-52.3-2.3-104.7-3.5-157c-0.2-7.8-0.7-15.7,0.6-23.3c3-17.2,17.6-28.7,34.3-28c16,0.7,25.5,10.7,26,30.7
			c1.8,66.8,2.5,133.6,4.4,200.5c0.4,15.5,3.2,31,5.9,46.2c0.8,4.2,5,10.1,8.5,10.7c3.5,0.6,9.5-3.3,11.8-6.9
			c5.4-8.3,9.6-17.5,13.5-26.7c18.1-43.2,20.1-88.1,16.1-134.3c-2.8-32.1-2.2-64.5-2.4-96.8c-0.1-22.7,7.8-32,26.3-33.2
			c19.5-1.3,30.1,8.7,33,31C1884,415,1884.8,416.4,1885.3,418z M1500.1,687.6c0-11.9,0.2-21.3,0-30.7c-1.2-47.9-4-95.7-22.2-140.7
			c-4-10-15-23.3-23.5-23.9c-14.5-1-17.4,15.7-21.2,27.9c-0.3,1.1-0.4,2.2-0.6,3.3c-7.7,41.3-1.8,81,16.3,118.5
			C1458.8,662.6,1473.9,679.7,1500.1,687.6z M1255,889.3c-2.3-0.7-4.5-1.5-6.8-2.2c-23.4,19.3-46.6,38.8-56.2,69.5
			c-6.8,21.7-1.3,43.3,11.4,47.7c12.5,4.3,29.4-7.9,35.4-30.7C1246.2,946,1249.8,917.5,1255,889.3z M1418.8,668.2
			c2.2,14.1,2.8,28.6,6.8,42.2c5.1,17.3,10.6,35.4,20.1,50.4c11.6,18.4,33.3,15.3,41.5-4.9c5.4-13.3,7.5-28,11.5-43.6
			C1463.8,708.9,1440.7,692,1418.8,668.2z"/>
		<path d="M1273.3,2467.3c22.6-7.1,44-13.1,64.7-20.9c3.7-1.4,6.6-10.2,6.5-15.6c-0.4-76.8-1.5-153.7-2-230.5
			c-0.2-24.7,25.3-41.4,47.6-30.3c6.1,3,11.5,13.7,11.7,21c0.7,39.5-0.5,79.1-0.7,118.6c-0.2,38.3,0,76.5,0,116.9
			c18.4-5,33.1-8.2,47-13.4c3.8-1.4,6.4-8.8,7.6-13.9c6.2-27.6,10.1-55.8,18.3-82.7c4.6-14.8,14.3-29.3,25-40.8
			c36.9-39.3,106.1-22.4,119.4,29.3c12.5,48.6,4.9,95.2-22.8,137.6c-16.6,25.4-41.1,38.3-72.9,39.8c3.4,20.9,10.3,39.1,24.7,53.8
			c9.9,10.1,22.8,13.9,35.2,8.1c13.8-6.4,29.3-13.6,38.5-25c26.4-32.6,42.5-69.6,40.2-113.4c-2.3-43.9-2.9-88-3.5-131.9
			c-0.4-25.7,8.3-37.1,26.9-38.2c19.6-1.1,30,9.9,33.4,37.3c5.9-15.2,9.3-29.6,16.7-41.7c7.9-12.9,17.7-26.3,30-34.5
			c20.1-13.5,40.4-5.4,47.2,18.1c4.7,16.2,5.9,33.9,6,50.9c0.1,22.8-3.5,45.6-3.2,68.4c0.1,7.8,7.2,15.5,11.2,23.2
			c7.5-4.7,18.8-7.8,21.8-14.6c8.2-17.9,13.4-37.3,18.7-56.4c8.3-29.8,12.1-61.5,24.2-89.6c19.6-45.5,59-59.3,105.5-42
			c16.6,6.2,25.6,19.8,30.3,35.6c15.5,52.1,8.7,101.5-21.4,146.9c-16.8,25.3-41.5,37.9-74,38.5c4.6,12.4,7.8,23.7,12.8,34
			c15.3,31.8,37.8,38.3,68.2,20c23.2-13.9,36.1-36,45.6-60.1c5.9-15,9.8-30.7,15.1-46c2-5.8,5.4-11.2,8.1-16.8
			c1.7,0.2,3.3,0.4,5,0.5c0.9,5.3,3.1,10.7,2.4,15.9c-4.2,34.5-12.5,67.9-30.2,98.3c-16.7,28.5-40.2,48.8-71.9,59.1
			c-36.4,11.9-65.6,1.9-87.3-29.7c-18.4-26.9-26-57.6-30.9-89.2c-0.5-3-0.8-6.1-1.3-9.6c-10.1,9.5-18.2,19.7-28.6,26.5
			c-35.1,23.2-73.2,6-77.4-35.6c-2-19.7,1.5-39.9,2.1-59.8c0.4-13.4,0.1-26.8,0.1-41.6c-18.2,4.4-21.5,17.7-25.7,29.1
			c-17.1,46.7-22.4,95.4-20.8,144.7c1.2,35.6,5.4,71,8.4,106.5c1.7,19.3-5,30.6-19.8,32.9c-13.5,2-24.4-6.8-28.6-24.3
			c-3.3-13.9-5.5-28-8.8-45.7c-4.4,10.2-7.4,17.5-10.6,24.8c-16.7,37.3-42.5,64.9-82.5,77.6c-34.4,10.9-62.5,2.2-83.9-27
			c-22.4-30.7-30.1-66.5-34.2-103.4c-0.4-3.9-0.6-7.8-1.1-11.6c-0.1-0.9-1.1-1.7-2.5-3.8c-13.7,4.7-28.1,8.7-41.6,14.8
			c-3.6,1.6-6.3,9.5-6.1,14.4c1.3,44.5,3.4,89,5.2,133.6c0.8,21-4.3,28.8-19.7,30.6c-16.1,1.9-28.3-8.3-30.4-27.4
			c-4.8-43.1-8.8-86.2-13.3-131.7c-24.3,6.7-48.6,13.4-74.2,20.5c2,47.6,3.7,94.3,6,141c1,20.6-3.9,28.6-21.1,30.6
			c-17.5,2.1-27.8-5.9-31.7-24.2c-3.6-16.9-5.2-34.6-11.9-50.2c-7-16.5-17.6-32.1-29.1-46c-14.5-17.5-33-28.2-57.3-18.6
			c-3.5,1.4-7.7,1.4-11.6,1.6c-11.7,0.6-24.1-0.2-26.3-14.3c-2.1-13.3,8.3-20.3,19.7-23c9-2.2,19.9-4.7,27.7-1.5
			c26.7,10.8,49.9-1.7,75.9-7.4c-0.7-15.4-1.9-30.3-1.9-45.2c0.1-68.5,0.3-136.9,1.2-205.4c0.3-20.9,11.4-30.8,31.2-31.2
			c19.7-0.4,28.4,8,28.4,27.9c0,73-0.1,145.9-0.1,218.9C1272.1,2454.6,1272.8,2459.9,1273.3,2467.3z M1928.3,2356.9
			c17.5-1.6,24.7-14.1,31.3-26c17.6-31.7,25.7-66.3,27.4-102.1c0.7-15.8-1.2-32.2-4.8-47.6c-3.1-13.4-12.3-15.7-22.2-6.3
			c-7,6.7-13.2,15.3-16.8,24.3C1922.9,2250,1921.3,2302.7,1928.3,2356.9z M1517.7,2461.5c2.1,1.4,4.2,2.9,6.3,4.3
			c8.4-9.5,18.8-17.8,24.7-28.6c21.8-39.9,31-83.2,27.4-128.4c-0.9-11.3-9.4-22-14.3-33c-9,8.2-21.7,14.7-26.4,24.9
			C1511.9,2352.2,1510.7,2406.6,1517.7,2461.5z M1219.6,2559.6c-1.7-18.7-3-33.3-4.5-49.3c-9.7,2.3-18.2,4.2-27.5,6.4
			C1198.2,2531,1207.4,2543.3,1219.6,2559.6z"/>
	</g>
</g>
</svg>
