<!-- Generated by IcoMoon.io -->
<svg version="1.1" xmlns="http://www.w3.org/2000/svg" width="14" height="18" viewBox="0 0 14 18">
<title>plus</title>
<path d="M14.143 7.393v1.929c0 0.532-0.432 0.964-0.964 0.964h-4.179v4.179c0 0.532-0.432 0.964-0.964 0.964h-1.929c-0.532 0-0.964-0.432-0.964-0.964v-4.179h-4.179c-0.532 0-0.964-0.432-0.964-0.964v-1.929c0-0.532 0.432-0.964 0.964-0.964h4.179v-4.179c0-0.532 0.432-0.964 0.964-0.964h1.929c0.532 0 0.964 0.432 0.964 0.964v4.179h4.179c0.532 0 0.964 0.432 0.964 0.964z"></path>
</svg>
